<?xml version="1.0" encoding="utf-8"?>
<!-- Generator: Adobe Illustrator 20.1.0, SVG Export Plug-In . SVG Version: 6.00 Build 0)  -->
<svg version="1.1" id="Layer_1" xmlns="http://www.w3.org/2000/svg" xmlns:xlink="http://www.w3.org/1999/xlink" x="0px" y="0px"
	 viewBox="0 0 283.5 83.7" style="enable-background:new 0 0 283.5 83.7;" xml:space="preserve">
<style type="text/css">
	.st0{clip-path:url(#SVGID_2_);}
	.st1{font-family:'AktivGrotesk-Medium';}
	.st2{font-size:10.5px;}
	.st3{letter-spacing:2;}
	.st4{letter-spacing:1;}
	.st5{clip-path:url(#SVGID_4_);}
	.st6{font-size:15px;}
	.st7{clip-path:url(#SVGID_6_);}
</style>
<g>
	<defs>
		<rect id="SVGID_1_" y="0" width="283.5" height="83.7"/>
	</defs>
	<clipPath id="SVGID_2_">
		<use xlink:href="#SVGID_1_"  style="overflow:visible;"/>
	</clipPath>
	<path class="st0" d="M13.7,34.4c0,5.4-1.6,9-5.2,10.7c-2.5,1.2-5,1.6-7.8,1.6l-0.3-1.6c1.7-0.5,2.4-1,3.4-2.1
		c1.1-1.3,1.6-4.3,1.6-8.8V13.1c0-2.4-0.4-2.6-3.7-2.7V8.6h15.6v1.9c-3.3,0.1-3.7,0.4-3.7,2.7V34.4z M47.4,28.7
		C47.4,36.9,43,42,33.7,42c-9.3,0-13.8-5.1-13.8-13.3s4.6-13.2,13.8-13.2S47.4,20.6,47.4,28.7z M28.3,28.7c0,5.4,1,11.1,5.4,11.1
		c4.1,0,5.4-4.3,5.4-11.1c0-3.4-0.6-11.1-5.5-11.1C30,17.7,28.3,20.9,28.3,28.7z M69.6,26.8v-6.6c0-1.8-0.4-2-3-2.1v-1.9h13.9v1.9
		c-2.6,0.1-3.2,0.3-3.2,2.1v17.1c0,1.8,0.7,2,3.2,2.1v1.9H66.6v-1.9c2.5-0.1,3-0.3,3-2.1V29h-7.9v8.3c0,1.8,0.5,2,3.1,2.1v1.9h-14
		v-1.9c2.6-0.1,3.3-0.3,3.3-2.1V20.2c0-1.8-0.7-2-3.3-2.1v-1.9h14v1.9c-2.6,0.1-3.1,0.3-3.1,2.1v6.6H69.6z M94.5,16.3
		c3.7,6,6.5,10.1,10.4,15.9l0.2-0.1v-6.7c0-3.1-0.1-3.7-0.2-5c-0.2-1.3-0.8-2.1-1.8-2.2l-2.3-0.2v-1.9h9.8v1.9l-1.6,0.2
		c-1,0.1-1.3,0.8-1.4,2.1c-0.2,1.3-0.3,2.1-0.3,5.1v15.8h-5.9c-2.2-3.7-8-12.9-12.4-20H89v10.2c0,3.1,0.1,4.2,0.2,5.5
		c0.1,1.3,0.7,2.2,1.7,2.3l2.2,0.2v1.9h-9.9v-1.9l1.8-0.3c0.9-0.2,1.5-1,1.6-2.2c0.1-1.3,0.2-2.4,0.2-5.5V20.2c0-1.8-0.7-2-3.3-2.1
		v-1.9H94.5z M135.2,34.4c0,5.4-1.6,9-5.2,10.7c-2.5,1.2-5,1.6-7.8,1.6l-0.3-1.6c1.7-0.5,2.4-1,3.4-2.1c1.1-1.3,1.6-4.3,1.6-8.8
		V13.1c0-2.4-0.4-2.6-3.7-2.7V8.6h15.6v1.9c-3.3,0.1-3.7,0.4-3.7,2.7V34.4z M168.9,28.7c0,8.2-4.4,13.3-13.7,13.3
		c-9.3,0-13.8-5.1-13.8-13.3s4.6-13.2,13.8-13.2S168.9,20.6,168.9,28.7z M149.8,28.7c0,5.4,1,11.1,5.4,11.1c4.1,0,5.4-4.3,5.4-11.1
		c0-3.4-0.6-11.1-5.5-11.1C151.5,17.7,149.8,20.9,149.8,28.7z M186.4,39.3v1.9h-14.2v-1.9c2.6-0.1,3.3-0.3,3.3-2.1V20.2
		c0-1.8-0.7-2-3.3-2.1v-1.9h14.2v1.9c-2.5,0.1-3.2,0.3-3.2,2.1v17.1C183.2,39,183.9,39.3,186.4,39.3z M200.3,16.3v1.8
		c-2.3,0.2-2.9,0.5-4.1,1.3c-2.8,1.9-3.7,3.2-6.7,6.2c1.8,3.2,5.1,8.7,8.3,12.3c1.3,1.4,1.7,1.6,3.3,1.9l-0.1,2l-2.8-0.1
		c-4.9-0.1-7.5-0.1-10-3.7c-1.8-2.5-3.4-5.9-4.7-8.9v-0.3c3.1-3,6.7-6.8,8.6-9.3c0.6-0.9,0.2-1.2-0.3-1.2l-2.1-0.2v-1.8H200.3z
		 M223.9,16.3v7.2h-2c-1.3-3.5-1.2-5-5.2-5h-2.1c-1.1,0-1.5,0.3-1.5,1.3V27h1.6c2.3,0,3-0.7,3.6-3.3h2v9h-2
		c-0.6-2.6-1.3-3.4-3.6-3.4h-1.6v7.2c0,2.2,0.8,2.5,4.1,2.5c2.2,0,3.3-0.2,4.1-1.3c0.8-1,1.3-2.7,2-4.6h2l-0.7,8.1h-22.4v-1.9
		c2.6-0.1,3.3-0.3,3.3-2.1V20.2c0-1.8-0.6-2-3.3-2.1v-1.9H223.9z M228.1,41.3v-1.9c2.6-0.1,3.3-0.3,3.3-2.1V20.2
		c0-1.8-0.7-2-3.3-2.1v-1.9h14.4v1.9c-3.1,0.1-3.4,0.3-3.4,2.1v16.4c0,2.1,0,2.5,2.9,2.5c1.9,0,3-0.3,3.8-1c1-0.9,1.4-2.3,2.5-5h2
		l-0.9,8.1H228.1z M259.7,32.8c-0.5,1.4-1.1,3.3-1.5,5.1c-0.2,0.8,0.1,1.2,1,1.3l2.3,0.2v1.9h-9.7v-1.9c2.1-0.1,2.8-0.4,3.4-1.9
		c2.9-7,5.4-14.3,7.8-21.3h6.1c2.3,6.4,6.1,16.7,7.8,21.4c0.6,1.5,1.4,1.7,3.3,1.7v1.9h-14.3v-1.9l2.4-0.2c0.8-0.1,0.9-0.5,0.7-1.3
		c-0.4-1.2-1.2-3.5-1.8-5.1H259.7z M263.5,21.2h-0.1c-0.7,2.2-2.3,7.1-3,9.4h6.1C265.7,28.3,264.2,23.7,263.5,21.2z"/>
</g>
<text transform="matrix(1 0 0 1 87.104 71.2286)"><tspan x="0" y="0" class="st1 st2 st3">L</tspan><tspan x="8.8" y="0" class="st1 st2 st4">A</tspan><tspan x="18" y="0" class="st1 st2">W</tspan></text>
<g>
	<defs>
		<rect id="SVGID_3_" y="0" width="283.5" height="83.7"/>
	</defs>
	<clipPath id="SVGID_4_">
		<use xlink:href="#SVGID_3_"  style="overflow:visible;"/>
	</clipPath>
	<g class="st5">
		<text transform="matrix(1 0 0 1 117.7534 71.2286)" class="st1 st6"> </text>
	</g>
</g>
<text transform="matrix(1 0 0 1 124.8481 71.2286)"><tspan x="0" y="0" class="st1 st2 st3">FIR</tspan><tspan x="23.5" y="0" class="st1 st2">M</tspan></text>
<g>
	<defs>
		<rect id="SVGID_5_" y="0" width="283.5" height="83.7"/>
	</defs>
	<clipPath id="SVGID_6_">
		<use xlink:href="#SVGID_5_"  style="overflow:visible;"/>
	</clipPath>
	<g class="st7">
		<text transform="matrix(1 0 0 1 159.9395 71.2286)" class="st1 st6"> </text>
	</g>
</g>
<text transform="matrix(1 0 0 1 167.0342 71.2286)"><tspan x="0" y="0" class="st1 st2 st3">L</tspan><tspan x="8.6" y="0" class="st1 st2 st3">L</tspan><tspan x="16.8" y="0" class="st1 st2">C</tspan></text>
</svg>
